<?xml version="1.0" encoding="utf-8"?>
<!-- Generator: Adobe Illustrator 22.1.0, SVG Export Plug-In . SVG Version: 6.00 Build 0)  -->
<svg version="1.1" id="Layer_1" xmlns="http://www.w3.org/2000/svg" xmlns:xlink="http://www.w3.org/1999/xlink" x="0px" y="0px"
	 viewBox="0 0 500 250" style="enable-background:new 0 0 500 250;" xml:space="preserve">
<style type="text/css">
	.st0{fill:#D8D7DA;}
	.st1{fill:#57565C;}
	.st2{fill:#EF7F11;}
	.st3{fill:#2D2D30;}
	.st4{fill:#83D8F4;}
</style>
<path class="st0" d="M129,221.8V52.4c0-11.1,9-20.2,20.2-20.2h201.6c11.1,0,20.2,9,20.2,20.2v169.4c0,11.1-9,20.2-20.2,20.2H149.2
	C138.1,241.9,129,232.9,129,221.8z"/>
<path class="st1" d="M129,48.4v177.4l-32.3-16.1V65.5L129,48.4z"/>
<path class="st1" d="M371,225.8V48.4l32.3,16.1v144.2L371,225.8z"/>
<path class="st2" d="M8.1,201.6v-129h88.7v129H8.1z"/>
<path class="st2" d="M403.2,201.6v-129h88.7v129H403.2z"/>
<path class="st3" d="M169.4,32.3V8.1h72.6v24.2H169.4z"/>
<path class="st4" d="M153.2,217.7V56.5h193.5v161.3H153.2z"/>
<path d="M161.3,8.1v16.1h-12.1c-11.8,0-22.3,7.4-26.5,18.4L93,58.4c-2.3,1.2-3.9,3.5-4.2,6.1H8.1c-4.5,0-8.1,3.6-8.1,8.1l0,129
	c0,4.5,3.6,8.1,8.1,8.1h80.6c0,3.1,1.7,5.8,4.5,7.2l29.6,14.8c4.1,11,14.7,18.3,26.4,18.3h201.6c11.8,0,22.3-7.4,26.5-18.4
	l29.7-15.8c2.3-1.2,3.9-3.5,4.2-6.1h80.7c4.5,0,8.1-3.6,8.1-8.1v-129c0-4.5-3.6-8.1-8.1-8.1h-80.6c0-3.1-1.7-5.8-4.5-7.2l-29.6-14.8
	c-4.1-11-14.7-18.3-26.4-18.3H250V8.1c0-4.5-3.6-8.1-8.1-8.1l-72.6,0C164.9,0,161.3,3.6,161.3,8.1z M16.1,193.5V80.6h72.6v112.9
	H16.1z M104.8,204.7V70.4l16.1-8.6v151L104.8,204.7z M483.9,80.6v112.9h-72.6V80.6H483.9z M395.2,69.5v134.3l-16.1,8.6v-151
	L395.2,69.5z M350.8,40.3c6.7,0,12.1,5.4,12.1,12.1v169.4c0,6.7-5.4,12.1-12.1,12.1H149.2c-6.7,0-12.1-5.4-12.1-12.1V52.4
	c0-6.7,5.4-12.1,12.1-12.1H350.8z M233.9,16.1v8.1h-56.5v-8.1H233.9z"/>
<path d="M145.2,56.5v161.3c0,4.5,3.6,8.1,8.1,8.1h193.5c4.5,0,8.1-3.6,8.1-8.1V56.5c0-4.5-3.6-8.1-8.1-8.1H153.2
	C148.8,48.4,145.2,52,145.2,56.5z M338.7,64.5v145.2H161.3V64.5H338.7z"/>
</svg>
