<svg height="512" viewBox="0 0 512 512" width="512" xmlns="http://www.w3.org/2000/svg"><g id="Flat"><path d="m456 464v32h-400v-32a147.86079 147.86079 0 0 1 13.24-61.13 131.6687 131.6687 0 0 1 89.71-73.68l48.38-11.39a32.01488 32.01488 0 0 0 24.67-31.14v-22.66h48v22.66a32.01488 32.01488 0 0 0 24.67 31.14l48.38 11.39a131.691 131.691 0 0 1 89.71 73.68 147.82773 147.82773 0 0 1 13.24 61.13z" fill="#f4ceaf"/><path d="m152 136h16a0 0 0 0 1 0 0v64a0 0 0 0 1 0 0h-16a32 32 0 0 1 -32-32 32 32 0 0 1 32-32z" fill="#f2c194"/><path d="m376 136h16a0 0 0 0 1 0 0v64a0 0 0 0 1 0 0h-16a32 32 0 0 1 -32-32 32 32 0 0 1 32-32z" fill="#f2c194" transform="matrix(-1 0 0 -1 736 336)"/><path d="m352 95.35v88.65a96 96 0 0 1 -192 0v-88z" fill="#f4ceaf"/><circle cx="208" cy="168" fill="#966342" r="8"/><circle cx="304" cy="168" fill="#966342" r="8"/><path d="m224 160h-32a8 8 0 0 1 0-16h32a8 8 0 0 1 0 16z" fill="#ad7d4d"/><path d="m320 160h-32a8 8 0 0 1 0-16h32a8 8 0 0 1 0 16z" fill="#ad7d4d"/><path d="m352 176v8a96 96 0 0 1 -192 0v-8l21.41 25.69a61.98877 61.98877 0 0 0 47.63 22.31h53.92a61.98877 61.98877 0 0 0 47.63-22.31z" fill="#ad7d4d"/><path d="m256 259.75244a43.7948 43.7948 0 0 1 -19.57764-4.59717 7.99984 7.99984 0 1 1 7.15528-14.31054 27.91375 27.91375 0 0 0 24.84472 0 7.99984 7.99984 0 0 1 7.15528 14.31054 43.7948 43.7948 0 0 1 -19.57764 4.59717z" fill="#f2c194"/><path d="m456 464v32h-400v-32a147.86079 147.86079 0 0 1 13.24-61.13 131.6687 131.6687 0 0 1 89.71-73.68l34-8.01a79.90222 79.90222 0 0 0 126.1 0l34 8.01a131.691 131.691 0 0 1 89.71 73.68 147.82773 147.82773 0 0 1 13.24 61.13z" fill="#c4d4e0"/><path d="m456 464v32h-152a386.63 386.63 0 0 1 5.26-63.56l8.24-49.44 9.97-59.83 24.64 5.8.94.22a131.691 131.691 0 0 1 89.71 73.68 147.82773 147.82773 0 0 1 13.24 61.13z" fill="#396795"/><path d="m208 496h-152v-32a147.86079 147.86079 0 0 1 13.24-61.13 131.6687 131.6687 0 0 1 89.71-73.68l.94-.22 24.64-5.8 9.97 59.83 8.24 49.44a386.63 386.63 0 0 1 5.26 63.56z" fill="#396795"/><g fill="#26507a"><path d="m194.5 383-42.5 17 7.89-71.03 24.64-5.8z"/><path d="m120 472h16v24h-16z"/><path d="m360 400-42.5-17 9.97-59.83 24.64 5.8z"/><path d="m376 472h16v24h-16z"/></g><path d="m368 104v2.75a31.99526 31.99526 0 0 1 -9.37 22.62l-6.63 6.63-56-24-33.93 11.31-53.59 17.86a54.26732 54.26732 0 0 1 -8.6 2.12 55.06573 55.06573 0 0 1 -63.88-54.35v-16.94c0-15.98 13.07-26.57 26.7-26.57a25.95967 25.95967 0 0 1 18.55 7.82 26.50809 26.50809 0 0 0 37.5 0l15.19-15.19a48.00349 48.00349 0 0 1 33.94-14.06h20.12a47.95626 47.95626 0 0 1 48 48 32.004 32.004 0 0 1 32 32z" fill="#ad7d4d"/><path d="m319.05 321.18a79.90222 79.90222 0 0 1 -126.1 0l14.38-3.38a31.73589 31.73589 0 0 0 10.68-4.7 55.8808 55.8808 0 0 0 75.98 0 31.73589 31.73589 0 0 0 10.68 4.7z" fill="#a6b2bc"/><path d="m263.99414 207.34814a8.00321 8.00321 0 0 1 -7.7456-6.02343l-8-31.34619a8 8 0 1 1 15.50292-3.957l8 31.3462a8.007 8.007 0 0 1 -7.75732 9.98046z" fill="#f2c194"/><path d="m368 104v2.75a31.99526 31.99526 0 0 1 -9.37 22.62l-6.63 6.63-56-24 40-40a32.004 32.004 0 0 1 32 32z" fill="#966342"/></g></svg>