<?xml version="1.0" encoding="iso-8859-1"?>
<!-- Generator: Adobe Illustrator 19.0.0, SVG Export Plug-In . SVG Version: 6.00 Build 0)  -->
<svg version="1.1" id="Layer_1" xmlns="http://www.w3.org/2000/svg" xmlns:xlink="http://www.w3.org/1999/xlink" x="0px" y="0px"
	 viewBox="0 0 303.502 303.502" style="enable-background:new 0 0 303.502 303.502;" xml:space="preserve">
<g>
	<g>
		<path style="fill:#C6C1BA;" d="M295.942,234.663c-11.151-37.754-67.121-33.566-91.279-44.408
			c-24.157-10.842-20.386-47.219-23.449-53.548h-58.932c-3.058,6.329,0.714,42.711-23.449,53.548
			C74.675,201.097,18.7,196.91,7.554,234.663C1.405,255.488,1.697,261.856,0,284.923c0,0,76.8,15.187,150.014,15.187
			s153.488-15.187,153.488-15.187C301.799,261.85,302.091,255.488,295.942,234.663z"/>
		<path style="fill:#BCB6AF;" d="M173.452,198.568c24.157,10.842,80.133,6.655,91.279,44.408c5.857,19.83,5.868,26.552,7.324,47.073
			c19.234-2.816,31.442-5.126,31.442-5.126c-1.697-23.067-1.405-29.435-7.554-50.26c-11.151-37.754-67.121-33.566-91.279-44.408
			c-24.157-10.842-20.386-47.219-23.449-53.548h-31.206C150.014,136.707,149.295,187.731,173.452,198.568z"/>
		<g>
			<polygon style="fill:#AFA9A3;" points="201.426,188.552 168.377,217.268 151.689,189.316 			"/>
			<polygon style="fill:#AFA9A3;" points="101.503,188.889 135.086,217.268 151.689,189.316 			"/>
			<path style="fill:#515151;" d="M151.689,189.316l-38.344-16.637c0,0-3.389,4.817-11.843,16.21l31.723,22.853L151.689,189.316z"/>
			<path style="fill:#515151;" d="M151.689,189.316l37.422-16.637c0,0,3.861,4.48,12.315,15.873l-32.195,23.191L151.689,189.316z"/>
			<path style="fill:#494948;" d="M189.111,172.679l-28.867,12.832c3.26,5.778,7.548,10.516,13.208,13.057
				c2.799,1.253,6.02,2.31,9.555,3.249l18.419-13.265C192.973,177.159,189.111,172.679,189.111,172.679z"/>
		</g>
		<g>
			<circle style="fill:#2F3233;" cx="151.689" cy="228.655" r="6.346"/>
			<circle style="fill:#2F3233;" cx="151.689" cy="260.423" r="6.346"/>
			<circle style="fill:#2F3233;" cx="151.689" cy="292.19" r="6.346"/>
		</g>
		<path style="fill:#E0DBD3;" d="M210.492,88.78H92.746c-7.858,0-14.434-5.947-15.226-13.765l-2.248-22.213
			c0-8.24,6.683-14.923,14.923-14.923h122.844c8.24,0,14.923,6.683,14.923,14.923l-2.243,22.207
			C224.926,82.828,218.344,88.78,210.492,88.78z"/>
		<g>
			
				<ellipse transform="matrix(-0.177 0.9842 -0.9842 -0.177 357.9998 -99.9545)" style="fill:#DDB58E;" cx="220.791" cy="99.703" rx="21.386" ry="11.629"/>
			
				<ellipse transform="matrix(-0.9842 0.177 -0.177 -0.9842 181.4129 183.2373)" style="fill:#E8C59E;" cx="82.534" cy="99.71" rx="11.629" ry="21.386"/>
			<path style="fill:#E8C59E;" d="M152.262,3.392c-70.213,0-71.517,41.952-70.865,75.164c0.866,43.903,9.19,102.104,70.291,110.76
				c61.276-8.678,71.629-66.857,70.426-110.76C221.345,50.65,222.475,3.392,152.262,3.392z"/>
			<path style="fill:#DDB58E;" d="M222.115,78.557c-0.534-19.464-0.152-48.349-23.697-64.036c5.992,30.306,7.475,75.344,5.396,95.91
				c-1.714,16.969-6.441,31.869-16.738,47.326c-18.717,28.103-35.387,31.565-35.387,31.565l0,0
				C212.965,180.638,223.318,122.459,222.115,78.557z"/>
			<path style="fill:#E0DBD3;" d="M163.931,140.102c-6.143,0.006-12.27,5.84-12.27,5.84s-6.126-5.834-12.27-5.84
				c-9.932-0.011-17.525,26.288-42.059,25.995c0,0,12.562,9.347,27.164,9.347s27.164-11.978,27.164-11.978
				s12.562,11.978,27.164,11.978s27.164-9.347,27.164-9.347C181.456,166.39,173.857,140.097,163.931,140.102z"/>
			<path style="fill:#DDB58E;" d="M197.413,60.149c-0.365,0-0.731-0.141-1.006-0.416l0,0c-0.056-0.051-5.514-5.311-16.165-5.311
				c-5.491,0-9.555,1.355-13.86,2.788c-4.328,1.444-8.808,2.934-14.765,2.934c-5.958,0-10.432-1.495-14.765-2.934
				c-4.305-1.433-8.369-2.788-13.86-2.788c-10.651,0-16.114,5.255-16.165,5.311c-0.562,0.556-1.467,0.551-2.023-0.011
				s-0.556-1.461,0-2.018c0.253-0.253,6.278-6.143,18.188-6.143c5.958,0,10.432,1.495,14.765,2.934
				c4.305,1.433,8.369,2.788,13.86,2.788s9.555-1.355,13.86-2.788c4.328-1.444,8.808-2.934,14.765-2.934
				c11.904,0,17.935,5.89,18.188,6.143c0.556,0.556,0.556,1.467,0,2.023C198.144,60.008,197.778,60.149,197.413,60.149z"/>
			<path style="fill:#DDB58E;" d="M197.413,50.808c-0.365,0-0.731-0.141-1.006-0.416l0,0c-0.056-0.051-5.514-5.311-16.165-5.311
				c-5.491,0-9.555,1.355-13.86,2.788c-4.328,1.444-8.808,2.934-14.765,2.934c-5.958,0-10.432-1.495-14.765-2.934
				c-4.305-1.433-8.369-2.788-13.86-2.788c-10.651,0-16.114,5.255-16.165,5.311c-0.562,0.556-1.467,0.551-2.023-0.011
				s-0.556-1.461,0-2.018c0.253-0.253,6.278-6.143,18.188-6.143c5.958,0,10.432,1.495,14.765,2.934
				c4.305,1.433,8.369,2.788,13.86,2.788s9.555-1.355,13.86-2.788c4.328-1.444,8.808-2.934,14.765-2.934
				c11.904,0,17.935,5.89,18.188,6.143c0.556,0.556,0.556,1.467,0,2.023C198.144,50.667,197.778,50.808,197.413,50.808z"/>
			<path style="fill:#E0DBD3;" d="M219.541,39.904l-1.551-1.18c-5.042-0.826-8.532,3.653-8.628,8.763l-0.5,27.603
				c-0.09,4.845,3.934,8.757,8.779,8.532c0.86-2.569,2.349-4.215,4.48-4.941l0.41-16.069L219.541,39.904z"/>
			<path style="fill:#E0DBD3;" d="M82.927,41.084l2.602-2.456c5.042-0.826,8.29,3.749,8.38,8.858l0.5,27.603
				c0.09,4.845-3.934,8.757-8.779,8.532c-1.062-2.681-2.467-4.339-4.232-4.901L80.74,62.616L82.927,41.084z"/>
			<path style="fill:#4C3626;" d="M219.586,85.987c-2.484-1.118-11.798-4.817-26.94-5.12c-17.868-0.354-33.971,5.435-33.971,5.435
				s-2.771-0.568-6.919-0.568c-4.154,0-6.919,0.568-6.919,0.568s-16.103-5.789-33.971-5.435c-15.142,0.298-24.455,3.996-26.94,5.12
				c-0.41,0.185-0.674,0.59-0.674,1.04v10.595c0,0.562,0.416,1.029,0.967,1.124c0.332,0.056,0.641,0.191,0.725,0.489
				c0.214,0.708,2.4,21.184,6.003,23.59s14.102,3.322,21.847,3.322s17.845-1.203,21.656-3.884c2.119-1.489,6.526-8.392,9.038-14.76
				c2.012-5.104,2.608-9.218,3.018-10.258c0.916-2.333,4.013-2.518,5.244-2.518c1.237,0,4.328,0.191,5.244,2.518
				c0.41,1.034,1,5.154,3.018,10.258c2.512,6.368,6.925,13.27,9.038,14.76c3.811,2.681,13.911,3.884,21.656,3.884
				s18.245-0.916,21.847-3.322c3.603-2.406,5.789-22.882,6.003-23.59c0.09-0.292,0.399-0.427,0.725-0.489
				c0.556-0.096,0.967-0.562,0.967-1.124V87.027C220.261,86.577,219.996,86.172,219.586,85.987z M139.762,105.249
				c-1.366,4.002-4.98,11.179-7.723,13.652c-2.473,2.231-9.561,3.811-18.126,3.811s-17.267-1.169-19.801-2.76
				c-2.541-1.585-4.317-9.898-4.631-12.882c-0.315-2.985-1.652-12.124,0.573-16.058s16.693-6.031,21.004-6.031
				c15.614,0,28.047,3.282,30.267,6.076C143.551,93.861,140.976,101.691,139.762,105.249z M214.033,107.076
				c-0.315,2.985-2.096,11.297-4.631,12.882c-2.541,1.585-11.236,2.76-19.801,2.76c-8.566,0-15.653-1.579-18.126-3.811
				c-2.743-2.473-6.357-9.651-7.723-13.652c-1.214-3.558-3.783-11.393-1.563-14.186s14.659-6.076,30.267-6.076
				c4.317,0,18.784,2.096,21.004,6.031C215.68,94.957,214.348,104.091,214.033,107.076z"/>
		</g>
	</g>
</g>
<g>
</g>
<g>
</g>
<g>
</g>
<g>
</g>
<g>
</g>
<g>
</g>
<g>
</g>
<g>
</g>
<g>
</g>
<g>
</g>
<g>
</g>
<g>
</g>
<g>
</g>
<g>
</g>
<g>
</g>
</svg>
