<svg id="Capa_1" enable-background="new 0 0 496 496" height="512" viewBox="0 0 496 496" width="512" xmlns="http://www.w3.org/2000/svg"><g><path d="m481.485 496c0-45.603-18.886-118.591-28.701-129.362-6.757-7.415-60.373-17.076-92.107-25.638-7.185-1.939-13.689-4.314-19.525-6.905-26.579-11.802-159.725-11.802-186.304 0-5.836 2.592-12.34 4.967-19.525 6.905-31.734 8.563-85.35 18.223-92.107 25.638-9.815 10.771-18.701 83.759-18.701 129.362z" fill="#766d78"/><path d="m69 496h-54.485c0-45.603 18.886-118.591 28.701-129.362 0 0-1.458 76.862 25.784 129.362z" fill="#544f56"/><path d="m194.148 317.622s-2.253 20.378-2.253 36.378c0 105 56.105 142 56.105 142s56.105-37 56.105-142c0-16-2.253-36.378-2.253-36.378z" fill="#c8d2dc"/><path d="m301.852 317.622c0 69.878-41.852 69.878-41.852 69.878h-24s-41.852 0-41.852-69.878 0-138.158 0-138.158h107.704z" fill="#f7f9fa"/><path d="m248 334s36.01 21 11.616 54c10.454 28 17.185 62.463 17.185 62.464 0 0-10.521 45.536-28.801 45.536s-28.801-45.536-28.801-45.536 6.731-34.464 17.185-62.464c-24.394-33 11.616-54 11.616-54z" fill="#8aaadc"/><path d="m296.788 496s60.404-51 60.404-90c0-23.731-16.037-71.907-16.037-71.907v-.006c-26.574-11.801-39.303-28.087-39.303-28.087v28c0 105-53.852 162-53.852 162s-53.852-57-53.852-162c0-7.674 0-18.649 0-28 0 0-12.729 16.286-39.303 28.088v.005s-16.037 48.176-16.037 71.907c0 39 60.404 90 60.404 90z" fill="#544f56"/><path d="m350.5 148.5c0-6.904 5.596-12.5 12.5-12.5s12.5 5.596 12.5 12.5 0 20.495 0 31.765-9.136 20.406-20.406 20.406c-1.691 0-4.01-.206-5.823-.594h-202.542c-1.812.388-4.131.594-5.822.594-11.27 0-20.406-9.136-20.406-20.406s0-24.861 0-31.765 5.595-12.5 12.499-12.5 12.5 5.596 12.5 12.5z" fill="#ebae9d"/><path d="m165.5 76.155c0-37.089 25.891-66.155 82.5-66.155 27.39 0 52.27-.855 70.658 12.787 19.616 14.554 31.842 44.224 31.842 63.368v94.721c0 66.492-45.891 129.393-102.5 129.393s-82.5-62.902-82.5-129.393c0-12.945 0-97.5 0-104.721z" fill="#ffcdbe"/><path d="m248 0c-15.729 0-62.5 43.551-62.5 76.155v104.721c0 66.492 5.891 129.393 62.5 129.393-56.609 0-102.5-62.902-102.5-129.393 0-12.946 0-87.5 0-94.721 0-37.089 45.891-86.155 102.5-86.155z" fill="#ebae9d"/><circle cx="318.5" cy="214" fill="#e6989e" r="21.5"/><circle cx="177.5" cy="214" fill="#e6989e" r="21.5"/><path d="m248 0c56.609 0 102.5 39.066 102.5 76.155v72.845c0-28.932-15.648-48.04-27-57-4.295-3.39-5-6.668-5-11 0-7 0-58 0-58 0 64-67.223 51.969-94.589 44.436-13.347-3.674-25.155-6.531-35.509-7.687-19.055-2.129 2.989-59.749 59.598-59.749z" fill="#be694e"/><path d="m248 0c-27 11.5-50.257 32.847-59.598 59.756-3.833-.428-7.463-.618-10.902-.535v21.78c0 4.332-.705 7.61-5 11-11.352 8.96-27 28.068-27 57 0-29.357 0-68.062 0-72.845 0-37.09 45.891-76.156 102.5-76.156z" fill="#934c35"/><path d="m248 268.61c-.001 0 .001 0 0 0-14.992 0-29.035-6.507-39.542-18.322-2.753-3.095-2.476-7.836.62-10.588 3.096-2.753 7.835-2.475 10.588.62 7.623 8.57 17.685 13.291 28.334 13.291s20.712-4.72 28.334-13.291c2.754-3.094 7.493-3.373 10.589-.62 3.095 2.753 3.372 7.493.62 10.588-10.508 11.815-24.553 18.322-39.543 18.322z" fill="#d5717f"/><g fill="#855b51"><path d="m205.224 186.951c-7.796 0-15.592-2.968-21.527-8.903-2.929-2.929-2.929-7.678 0-10.606 2.929-2.929 7.678-2.929 10.606 0 6.021 6.021 15.819 6.022 21.841 0 2.929-2.929 7.678-2.929 10.606 0 2.929 2.929 2.929 7.678 0 10.606-5.934 5.935-13.73 8.903-21.526 8.903zm85.552-.001c-7.796 0-15.592-2.967-21.527-8.902-2.93-2.929-2.93-7.678-.001-10.607 2.929-2.928 7.678-2.931 10.606 0 6.023 6.021 15.82 6.022 21.842 0 2.93-2.929 7.678-2.929 10.607 0s2.929 7.678 0 10.606c-5.935 5.936-13.731 8.903-21.527 8.903z"/><path d="m179.581 148.978c-2.686 0-5.283-1.446-6.63-3.984-1.942-3.658-.552-8.199 3.106-10.142 14.065-7.47 36.101-7.469 50.166 0 3.658 1.943 5.049 6.483 3.106 10.142s-6.484 5.049-10.142 3.106c-9.783-5.196-26.312-5.196-36.096 0-1.119.596-2.323.878-3.51.878zm136.837 0c-1.187 0-2.39-.282-3.511-.877-9.783-5.196-26.313-5.196-36.096 0-3.661 1.942-8.199.551-10.142-3.106-1.942-3.658-.552-8.199 3.106-10.142 14.064-7.47 36.102-7.47 50.166 0 3.658 1.943 5.049 6.483 3.106 10.142-1.346 2.536-3.943 3.983-6.629 3.983z"/></g></g></svg>