<?xml version="1.0" encoding="utf-8"?>
<!-- Generator: Adobe Illustrator 22.1.0, SVG Export Plug-In . SVG Version: 6.00 Build 0)  -->
<svg version="1.1" id="Layer_1" xmlns="http://www.w3.org/2000/svg" xmlns:xlink="http://www.w3.org/1999/xlink" x="0px" y="0px"
	 viewBox="0 0 50 50" style="enable-background:new 0 0 50 50;" xml:space="preserve">
<style type="text/css">
	.st0{fill:#33CCCC;}
	.st1{fill:#FF0066;}
	.st2{fill:#FFFFFF;}
</style>
<g>
	<g>
		<g>
			<g>
				<path class="st0" d="M27.8,15.9c0,2.4-2.8,4.3-2.8,4.3s-2.8-1.9-2.8-4.3s2.8-4.3,2.8-4.3S27.8,13.6,27.8,15.9z"/>
				<path class="st1" d="M21.6,15.9c0-0.7,0.2-1.4,0.6-2c-1.5-0.8-3.4-0.8-3.4-0.8s-1.3,3.2,0,5.1s4.7,2,4.7,2s0.1-0.1,0.1-0.4
					C22.8,19,21.6,17.6,21.6,15.9z"/>
				<path class="st1" d="M31.2,13.1c0,0-1.9,0-3.4,0.8c0.3,0.6,0.6,1.3,0.6,2c0,1.7-1.2,3.1-2.1,3.9c0.1,0.2,0.1,0.4,0.1,0.4
					s3.4,0,4.7-2C32.4,16.2,31.2,13.1,31.2,13.1z"/>
			</g>
			<g>
				<path class="st0" d="M27.8,34.1c0-2.4-2.8-4.3-2.8-4.3s-2.8,1.9-2.8,4.3s2.8,4.3,2.8,4.3S27.8,36.4,27.8,34.1z"/>
				<path class="st1" d="M21.6,34.1c0,0.7,0.2,1.4,0.6,2c-1.5,0.8-3.4,0.8-3.4,0.8s-1.3-3.2,0-5.1c1.3-2,4.7-2,4.7-2
					s0.1,0.1,0.1,0.4C22.8,31,21.6,32.4,21.6,34.1z"/>
				<path class="st1" d="M31.2,36.9c0,0-1.9,0-3.4-0.8c0.3-0.6,0.6-1.3,0.6-2c0-1.7-1.2-3.1-2.1-3.9c0.1-0.2,0.1-0.4,0.1-0.4
					s3.4,0,4.7,2C32.5,33.8,31.2,36.9,31.2,36.9z"/>
			</g>
		</g>
		<g>
			<g>
				<path class="st0" d="M15.9,22.2c2.4,0,4.3,2.8,4.3,2.8s-1.9,2.8-4.3,2.8S11.6,25,11.6,25S13.6,22.2,15.9,22.2z"/>
				<path class="st1" d="M15.9,28.4c-0.7,0-1.4-0.2-2-0.6c-0.8,1.5-0.8,3.4-0.8,3.4s3.2,1.3,5.1,0c2-1.3,2-4.7,2-4.7
					s-0.1-0.1-0.4-0.1C19,27.2,17.6,28.4,15.9,28.4z"/>
				<path class="st1" d="M13.1,18.8c0,0,0,1.9,0.8,3.4c0.6-0.3,1.3-0.6,2-0.6c1.7,0,3.1,1.2,3.9,2.1c0.2-0.1,0.4-0.1,0.4-0.1
					s0-3.4-2-4.7S13.1,18.8,13.1,18.8z"/>
			</g>
			<g>
				<path class="st0" d="M34.1,22.2c-2.4,0-4.3,2.8-4.3,2.8s1.9,2.8,4.3,2.8s4.3-2.8,4.3-2.8S36.4,22.2,34.1,22.2z"/>
				<path class="st1" d="M34.1,28.4c0.7,0,1.4-0.2,2-0.6c0.8,1.5,0.8,3.4,0.8,3.4s-3.2,1.3-5.1,0c-2-1.3-2-4.7-2-4.7
					s0.1-0.1,0.4-0.1C31,27.2,32.4,28.4,34.1,28.4z"/>
				<path class="st1" d="M36.9,18.8c0,0,0,1.9-0.8,3.4c-0.6-0.3-1.3-0.6-2-0.6c-1.7,0-3.1,1.2-3.9,2.1c-0.2-0.1-0.4-0.1-0.4-0.1
					s0-3.4,2-4.7S36.9,18.8,36.9,18.8z"/>
			</g>
		</g>
	</g>
	<polygon class="st2" points="20.4,20.4 25,23.1 29.6,20.4 26.9,25 29.6,29.6 25,26.9 20.4,29.6 23.1,25 	"/>
	<path class="st0" d="M25,45.8c-1.9,0-3.8-0.6-5.3-1.7c-1.7-1.2-2.8-3-3.4-5.1c-0.7-2.6-2.7-4.6-5.3-5.3c-2.1-0.5-3.9-1.7-5.1-3.4
		c-1.1-1.5-1.7-3.4-1.7-5.3c0-1.9,0.6-3.8,1.7-5.3c1.2-1.7,3-2.8,5.1-3.4c2.6-0.7,4.6-2.7,5.3-5.3c0.5-2.1,1.7-3.9,3.4-5.1
		c1.5-1.1,3.4-1.7,5.3-1.7s3.8,0.6,5.3,1.7c1.7,1.2,2.8,3,3.4,5.1c0.7,2.6,2.7,4.6,5.3,5.3c2.1,0.5,3.9,1.7,5.1,3.4
		c1.1,1.5,1.7,3.4,1.7,5.3c0,1.9-0.6,3.8-1.7,5.3c-1.2,1.7-3,2.8-5.1,3.4c-2.6,0.7-4.6,2.7-5.3,5.3c-0.5,2.1-1.7,3.9-3.4,5.1
		C28.8,45.2,26.9,45.8,25,45.8z M25,5.9c-2.6,0-6.1,1.4-7.1,5.5c-0.8,3.2-3.3,5.7-6.5,6.5c-4.1,1-5.5,4.5-5.5,7.1s1.4,6.1,5.5,7.1
		c3.2,0.8,5.7,3.3,6.5,6.5c1,4.1,4.5,5.5,7.1,5.5s6.1-1.4,7.1-5.5c0.8-3.2,3.3-5.7,6.5-6.5c4.1-1,5.5-4.5,5.5-7.1s-1.4-6.1-5.5-7.1
		c-3.2-0.8-5.7-3.3-6.5-6.5C31.1,7.3,27.6,5.9,25,5.9z"/>
</g>
<g>
	<g>
		<g>
			<path class="st0" d="M11.2,13c1,0,1.7-0.1,1.7-0.1h0.4v-0.4c0-0.1,0.2-2.3-0.2-5.2C13,5.5,12.6,3.9,12,2.5
				c-0.4-0.9-0.8-1.8-1.3-2.5H9.4c1.7,2.3,2.4,5.2,2.7,7.3c0.3,2,0.2,3.8,0.2,4.5c-1.1,0.1-3.9,0.1-6.9-0.6c-2.1-0.6-4-1.5-5.4-2.7
				v1.3c1.4,1,3.2,1.8,5.3,2.4C7.6,12.8,9.8,13,11.2,13z"/>
			<path class="st1" d="M5.9,9.8c1.4,0.4,2.9,0.6,4.5,0.6H11V9.8c0-0.8-0.1-1.6-0.2-2.4c-0.6-4-2-6.3-3.2-7.5H6
				c0.2,0.2,0.5,0.4,0.7,0.6c1.1,1.1,2.5,3.2,3,7.1c0.1,0.5,0.1,1.1,0.2,1.7c-1.4,0-2.6-0.2-3.8-0.5C4,8.3,2.3,7.4,1.1,6.2
				C0.8,5.8,0.4,5.4,0,4.8v1.8C0.1,6.7,0.2,6.9,0.4,7C1.7,8.3,3.5,9.2,5.9,9.8z"/>
		</g>
		<circle class="st0" cx="5.1" cy="4.6" r="2.6"/>
	</g>
	<g>
		<g>
			<path class="st0" d="M38.8,13c-1,0-1.7-0.1-1.7-0.1h-0.4v-0.4c0-0.1-0.2-2.3,0.2-5.2C37,5.5,37.4,3.9,38,2.5
				c0.4-0.9,0.8-1.8,1.3-2.5h1.3c-1.7,2.3-2.4,5.2-2.7,7.3c-0.3,2-0.2,3.8-0.2,4.5c1.1,0.1,3.9,0.1,6.9-0.6c2.2-0.6,4.1-1.5,5.5-2.7
				v1.3c-1.4,1-3.2,1.8-5.3,2.4C42.4,12.8,40.2,13,38.8,13z"/>
			<path class="st1" d="M44.1,9.8c-1.4,0.4-2.9,0.6-4.5,0.6H39V9.8c0-0.8,0.1-1.6,0.2-2.4c0.6-4,2-6.3,3.2-7.5H44
				c-0.2,0.2-0.5,0.4-0.7,0.6c-1.1,1.1-2.5,3.2-3,7.1c-0.1,0.5-0.1,1.1-0.2,1.7c1.3-0.1,2.6-0.3,3.7-0.6c2.1-0.5,3.8-1.4,5-2.6
				c0.4-0.3,0.7-0.8,1.1-1.4v1.8c-0.1,0.1-0.2,0.3-0.4,0.4C48.3,8.3,46.5,9.2,44.1,9.8z"/>
		</g>
		<circle class="st0" cx="44.9" cy="4.6" r="2.6"/>
	</g>
</g>
<g>
	<g>
		<g>
			<path class="st0" d="M11.2,37c1,0,1.7,0.1,1.7,0.1h0.4v0.4c0,0.1,0.2,2.3-0.2,5.2c-0.2,1.7-0.6,3.3-1.2,4.7
				c-0.4,0.9-0.8,1.8-1.3,2.5H9.4c1.7-2.3,2.4-5.2,2.7-7.3c0.3-2,0.2-3.8,0.2-4.5C11.2,38,8.4,38,5.4,38.7c-2.2,0.6-4.1,1.5-5.5,2.7
				v-1.3c1.4-1,3.2-1.8,5.3-2.4C7.6,37.2,9.8,37,11.2,37z"/>
			<path class="st1" d="M5.9,40.2c1.4-0.4,2.9-0.6,4.5-0.6H11v0.6c0,0.8-0.1,1.6-0.2,2.4c-0.6,4-2,6.3-3.2,7.5H6
				c0.2-0.2,0.5-0.4,0.7-0.6c1.1-1.1,2.5-3.2,3-7.1c0.1-0.5,0.1-1.1,0.2-1.7c-1.3,0.1-2.6,0.3-3.7,0.6c-2.1,0.5-3.8,1.4-5,2.6
				c-0.4,0.4-0.7,0.8-1.1,1.4v-1.8c0.1-0.1,0.2-0.3,0.4-0.4C1.7,41.7,3.5,40.8,5.9,40.2z"/>
		</g>
		<circle class="st0" cx="5.1" cy="45.4" r="2.6"/>
	</g>
	<g>
		<g>
			<path class="st0" d="M38.8,37c-1,0-1.7,0.1-1.7,0.1h-0.4v0.4c0,0.1-0.2,2.3,0.2,5.2c0.2,1.7,0.6,3.3,1.2,4.7
				c0.4,0.9,0.8,1.8,1.3,2.5h1.3c-1.7-2.3-2.4-5.2-2.7-7.3c-0.3-2-0.2-3.8-0.2-4.5c1.1-0.1,3.9-0.1,6.9,0.6c2.2,0.6,4.1,1.5,5.5,2.7
				v-1.3c-1.4-1-3.2-1.8-5.3-2.4C42.4,37.2,40.2,37,38.8,37z"/>
			<path class="st1" d="M44.1,40.2c-1.4-0.4-2.9-0.6-4.5-0.6H39v0.6c0,0.8,0.1,1.6,0.2,2.4c0.6,4,2,6.3,3.2,7.5H44
				c-0.2-0.2-0.5-0.4-0.7-0.6c-1.1-1.1-2.5-3.2-3-7.1c-0.1-0.5-0.1-1.1-0.2-1.7c1.3,0.1,2.6,0.3,3.7,0.6c2.1,0.5,3.8,1.4,5,2.6
				c0.4,0.4,0.7,0.8,1.1,1.4v-1.8c-0.1-0.1-0.2-0.3-0.4-0.4C48.3,41.7,46.5,40.8,44.1,40.2z"/>
		</g>
		<circle class="st0" cx="44.9" cy="45.4" r="2.6"/>
	</g>
</g>
</svg>
