<?xml version="1.0" encoding="utf-8"?>
<!-- Generator: Adobe Illustrator 15.0.1, SVG Export Plug-In . SVG Version: 6.00 Build 0)  -->
<!DOCTYPE svg PUBLIC "-//W3C//DTD SVG 1.1//EN" "http://www.w3.org/Graphics/SVG/1.1/DTD/svg11.dtd">
<svg version="1.1" id="Layer_1" xmlns="http://www.w3.org/2000/svg" xmlns:xlink="http://www.w3.org/1999/xlink" x="0px" y="0px"
	 width="50px" height="50px" viewBox="0 0 50 50" enable-background="new 0 0 50 50" xml:space="preserve">
<g>
	<g>
		<g>
			<g>
				<path fill="#00203F" d="M27.832,15.923c0,2.37-2.832,4.292-2.832,4.292s-2.831-1.921-2.831-4.292
					c0-2.371,2.831-4.292,2.831-4.292S27.832,13.553,27.832,15.923z"/>
				<path fill="#5AE1E1" d="M21.643,15.923c0-0.729,0.228-1.413,0.56-2.021c-1.505-0.808-3.375-0.827-3.375-0.827
					s-1.295,3.167,0.016,5.142c1.311,1.975,4.733,2.008,4.733,2.008s0.059-0.143,0.138-0.387
					C22.818,18.998,21.643,17.58,21.643,15.923z"/>
				<path fill="#5AE1E1" d="M31.174,13.075c0,0-1.871,0.019-3.376,0.827c0.331,0.608,0.56,1.292,0.56,2.021
					c0,1.657-1.176,3.075-2.067,3.915c0.078,0.244,0.138,0.387,0.138,0.387s3.424-0.034,4.732-2.008
					C32.469,16.243,31.174,13.075,31.174,13.075z"/>
			</g>
			<g>
				<path fill="#00203F" d="M27.832,34.078c0-2.371-2.832-4.292-2.832-4.292s-2.831,1.921-2.831,4.292
					c0,2.369,2.831,4.291,2.831,4.291S27.832,36.447,27.832,34.078z"/>
				<path fill="#5AE1E1" d="M21.643,34.078c0,0.729,0.228,1.412,0.56,2.021c-1.505,0.807-3.375,0.823-3.375,0.823
					s-1.295-3.167,0.016-5.142c1.312-1.977,4.733-2.01,4.733-2.01s0.059,0.145,0.138,0.389
					C22.818,31.002,21.643,32.42,21.643,34.078z"/>
				<path fill="#5AE1E1" d="M31.174,36.925c0,0-1.871-0.019-3.376-0.825c0.331-0.606,0.56-1.293,0.56-2.021
					c0-1.658-1.176-3.076-2.067-3.916c0.078-0.244,0.138-0.388,0.138-0.388s3.424,0.033,4.732,2.009
					C32.469,33.759,31.174,36.925,31.174,36.925z"/>
			</g>
		</g>
		<g>
			<g>
				<path fill="#00203F" d="M15.923,22.169c2.37,0,4.292,2.831,4.292,2.831s-1.921,2.832-4.292,2.832
					c-2.371,0-4.292-2.832-4.292-2.832S13.553,22.169,15.923,22.169z"/>
				<path fill="#5AE1E1" d="M15.923,28.357c-0.729,0-1.413-0.229-2.021-0.563c-0.808,1.508-0.827,3.376-0.827,3.376
					s3.167,1.295,5.142-0.019c1.975-1.313,2.008-4.73,2.008-4.73s-0.143-0.061-0.387-0.138
					C18.998,27.182,17.58,28.357,15.923,28.357z"/>
				<path fill="#5AE1E1" d="M13.075,18.827c0,0,0.019,1.871,0.827,3.376c0.608-0.332,1.292-0.56,2.021-0.56
					c1.657,0,3.075,1.176,3.915,2.071c0.244-0.079,0.387-0.138,0.387-0.138s-0.034-3.421-2.008-4.733
					C16.243,17.531,13.075,18.827,13.075,18.827z"/>
			</g>
			<g>
				<path fill="#00203F" d="M34.078,22.169c-2.371,0-4.292,2.831-4.292,2.831s1.921,2.832,4.292,2.832
					c2.369,0,4.291-2.832,4.291-2.832S36.447,22.169,34.078,22.169z"/>
				<path fill="#5AE1E1" d="M34.078,28.357c0.729,0,1.412-0.229,2.02-0.563c0.812,1.508,0.827,3.376,0.827,3.376
					s-3.167,1.295-5.142-0.019c-1.975-1.313-2.008-4.73-2.008-4.73s0.143-0.061,0.387-0.138
					C31.002,27.182,32.42,28.357,34.078,28.357z"/>
				<path fill="#5AE1E1" d="M36.925,18.827c0,0-0.019,1.871-0.827,3.376c-0.604-0.332-1.291-0.56-2.02-0.56
					c-1.658,0-3.076,1.176-3.916,2.071c-0.244-0.079-0.387-0.138-0.387-0.138s0.033-3.421,2.008-4.733S36.925,18.827,36.925,18.827z
					"/>
			</g>
		</g>
	</g>
	<polygon fill="#FFFFFF" points="20.376,20.377 25,23.139 29.623,20.377 26.861,25 29.623,29.623 25,26.861 20.376,29.623 
		23.139,25 	"/>
	<path fill="#00203F" d="M25,45.82c-1.934,0-3.832-0.604-5.346-1.7c-1.673-1.212-2.84-2.974-3.375-5.095
		c-0.659-2.613-2.691-4.646-5.304-5.305c-2.122-0.535-3.884-1.701-5.096-3.375c-1.096-1.517-1.7-3.412-1.7-5.348
		c0-1.934,0.604-3.833,1.7-5.346c1.212-1.673,2.974-2.84,5.096-3.375c2.613-0.659,4.646-2.691,5.304-5.304
		c0.535-2.122,1.702-3.884,3.375-5.095c1.514-1.097,3.412-1.7,5.346-1.7c1.934,0,3.832,0.604,5.346,1.7
		c1.674,1.211,2.84,2.973,3.375,5.095c0.658,2.613,2.691,4.646,5.305,5.304c2.121,0.535,3.886,1.702,5.098,3.375
		c1.098,1.514,1.697,3.412,1.697,5.346c0,1.936-0.604,3.832-1.697,5.348c-1.212,1.674-2.977,2.84-5.098,3.375
		c-2.61,0.655-4.646,2.688-5.305,5.303c-0.535,2.123-1.701,3.885-3.375,5.097C28.832,45.217,26.934,45.82,25,45.82z M25,5.86
		c-2.629,0-6.063,1.448-7.091,5.526c-0.81,3.213-3.31,5.712-6.522,6.522C7.307,18.937,5.86,22.371,5.86,25
		c0,2.628,1.447,6.063,5.526,7.091c3.213,0.81,5.712,3.31,6.522,6.522c1.028,4.078,4.462,5.525,7.091,5.525s6.063-1.447,7.092-5.525
		c0.81-3.215,3.31-5.713,6.522-6.522c4.078-1.028,5.525-4.463,5.525-7.091c0-2.629-1.447-6.064-5.525-7.092
		c-3.215-0.81-5.713-3.31-6.522-6.522C31.063,7.308,27.629,5.86,25,5.86z"/>
</g>
<g>
	<g>
		<g>
			<path fill="#00203F" d="M11.192,12.956c1.046,0,1.696-0.064,1.724-0.067l0.43-0.043l0.044-0.43
				c0.009-0.093,0.228-2.33-0.169-5.212c-0.234-1.699-0.635-3.269-1.192-4.666C11.66,1.616,11.223,0.768,10.721,0H9.43
				c1.72,2.316,2.44,5.181,2.738,7.323c0.283,2.034,0.242,3.765,0.199,4.544c-1.063,0.059-3.869,0.114-6.851-0.649
				C3.292,10.649,1.441,9.748,0,8.535v1.343c1.447,1.048,3.207,1.842,5.253,2.366C7.557,12.833,9.754,12.956,11.192,12.956z"/>
			<path fill="#5AE1E1" d="M5.871,9.831c1.402,0.359,2.928,0.568,4.535,0.622l0.565,0.019l-0.019-0.566
				c-0.027-0.802-0.094-1.597-0.199-2.362C10.199,3.523,8.741,1.236,7.563,0H5.992c0.244,0.193,0.474,0.396,0.687,0.609
				C7.764,1.694,9.17,3.803,9.705,7.688c0.076,0.547,0.13,1.11,0.164,1.68c-1.32-0.077-2.574-0.266-3.735-0.563
				c-2.136-0.546-3.826-1.43-5.023-2.627C0.76,5.829,0.377,5.372,0,4.783v1.759C0.123,6.681,0.244,6.81,0.361,6.927
				C1.694,8.259,3.548,9.237,5.871,9.831z"/>
		</g>
		<circle fill="#00203F" cx="5.066" cy="4.604" r="2.623"/>
	</g>
	<g>
		<g>
			<path fill="#00203F" d="M38.809,12.956c-1.047,0-1.697-0.064-1.725-0.067l-0.43-0.043l-0.043-0.43
				c-0.01-0.093-0.229-2.33,0.168-5.212c0.234-1.699,0.636-3.269,1.193-4.666C38.34,1.616,38.777,0.768,39.279,0h1.291
				c-1.721,2.316-2.441,5.181-2.738,7.323c-0.282,2.034-0.241,3.765-0.199,4.544c1.063,0.059,3.869,0.114,6.852-0.649
				c2.228-0.569,4.074-1.47,5.519-2.683v1.343c-1.444,1.048-3.206,1.842-5.254,2.366C42.443,12.833,40.246,12.956,38.809,12.956z"/>
			<path fill="#5AE1E1" d="M44.129,9.831c-1.4,0.359-2.928,0.568-4.533,0.622l-0.566,0.019l0.021-0.566
				c0.026-0.802,0.098-1.597,0.2-2.362C39.803,3.523,41.26,1.236,42.438,0h1.57c-0.244,0.193-0.473,0.396-0.686,0.609
				c-1.086,1.085-2.49,3.194-3.026,7.079c-0.075,0.547-0.13,1.11-0.163,1.68c1.319-0.077,2.573-0.266,3.734-0.563
				c2.137-0.546,3.826-1.43,5.023-2.627C49.24,5.829,49.623,5.372,50,4.783v1.759c-0.123,0.139-0.244,0.268-0.361,0.385
				C48.307,8.259,46.452,9.237,44.129,9.831z"/>
		</g>
		<circle fill="#00203F" cx="44.936" cy="4.604" r="2.623"/>
	</g>
</g>
<g>
	<g>
		<g>
			<path fill="#00203F" d="M11.192,37.044c1.046,0,1.696,0.065,1.724,0.067l0.43,0.043l0.044,0.431
				c0.009,0.093,0.228,2.329-0.169,5.212c-0.234,1.699-0.635,3.27-1.192,4.666c-0.368,0.922-0.805,1.77-1.307,2.537H9.43
				c1.72-2.316,2.44-5.182,2.738-7.322c0.283-2.033,0.242-3.766,0.199-4.545c-1.063-0.059-3.869-0.113-6.851,0.648
				C3.292,39.352,1.441,40.252,0,41.465v-1.342c1.447-1.049,3.207-1.844,5.253-2.367C7.557,37.168,9.754,37.044,11.192,37.044z"/>
			<path fill="#5AE1E1" d="M5.871,40.17c1.402-0.359,2.928-0.568,4.535-0.622l0.565-0.019l-0.019,0.563
				c-0.027,0.805-0.094,1.6-0.199,2.363c-0.554,4.021-2.012,6.309-3.19,7.543H5.992c0.244-0.191,0.474-0.396,0.687-0.607
				c1.085-1.084,2.491-3.193,3.026-7.078c0.076-0.547,0.13-1.108,0.164-1.683c-1.32,0.077-2.574,0.269-3.735,0.563
				c-2.136,0.548-3.826,1.431-5.023,2.627C0.76,44.172,0.377,44.629,0,45.217v-1.758c0.123-0.139,0.244-0.268,0.361-0.385
				C1.694,41.74,3.548,40.764,5.871,40.17z"/>
		</g>
		<circle fill="#00203F" cx="5.066" cy="45.396" r="2.623"/>
	</g>
	<g>
		<g>
			<path fill="#00203F" d="M38.809,37.044c-1.047,0-1.697,0.065-1.725,0.067l-0.43,0.043l-0.043,0.431
				c-0.01,0.093-0.229,2.329,0.168,5.212c0.234,1.699,0.636,3.27,1.193,4.666c0.364,0.922,0.805,1.77,1.307,2.537h1.291
				c-1.721-2.316-2.441-5.182-2.738-7.322c-0.282-2.033-0.241-3.766-0.199-4.545c1.063-0.059,3.869-0.113,6.852,0.648
				c2.228,0.57,4.074,1.471,5.519,2.684v-1.342c-1.444-1.049-3.206-1.844-5.254-2.367C42.443,37.168,40.246,37.044,38.809,37.044z"
				/>
			<path fill="#5AE1E1" d="M44.129,40.17c-1.4-0.359-2.928-0.568-4.533-0.622l-0.566-0.019l0.021,0.563
				c0.026,0.805,0.098,1.6,0.2,2.363c0.556,4.021,2.013,6.309,3.188,7.543h1.569c-0.243-0.191-0.473-0.396-0.687-0.607
				c-1.086-1.084-2.489-3.193-3.025-7.078c-0.074-0.547-0.13-1.108-0.163-1.683c1.319,0.077,2.573,0.269,3.734,0.563
				c2.137,0.548,3.825,1.431,5.022,2.627c0.351,0.351,0.73,0.808,1.107,1.396v-1.758c-0.123-0.14-0.244-0.269-0.359-0.386
				C48.307,41.74,46.452,40.764,44.129,40.17z"/>
		</g>
		<circle fill="#00203F" cx="44.936" cy="45.396" r="2.623"/>
	</g>
</g>
</svg>
