<?xml version="1.0" encoding="utf-8"?>
<!-- Generator: Adobe Illustrator 22.1.0, SVG Export Plug-In . SVG Version: 6.00 Build 0)  -->
<svg version="1.1" id="Layer_1" xmlns="http://www.w3.org/2000/svg" xmlns:xlink="http://www.w3.org/1999/xlink" x="0px" y="0px"
	 viewBox="0 0 287 287" style="enable-background:new 0 0 287 287;" xml:space="preserve">
<style type="text/css">
	.st0{fill:#2C0266;}
	.st1{fill:#F8D500;}
	.st2{fill:#F761F7;}
</style>
<g>
	<g>
		<g>
			<path class="st0" d="M143.5,254.1c-21.6,0-39.1-17.5-39.1-39.1V72c0-21.6,17.5-39.1,39.1-39.1c21.6,0,39.1,17.5,39.1,39.1v143
				C182.6,236.5,165.1,254.1,143.5,254.1z M143.5,41.6c-16.8,0-30.4,13.6-30.4,30.4v143c0,16.8,13.6,30.4,30.4,30.4
				c16.8,0,30.4-13.6,30.4-30.4V72C173.9,55.3,160.3,41.6,143.5,41.6z"/>
			<path class="st0" d="M215,182.6H72c-21.6,0-39.1-17.5-39.1-39.1c0-21.6,17.5-39.1,39.1-39.1h143c21.6,0,39.1,17.5,39.1,39.1
				C254.1,165.1,236.5,182.6,215,182.6z M72,113.1c-16.8,0-30.4,13.6-30.4,30.4c0,16.8,13.6,30.4,30.4,30.4h143
				c16.8,0,30.4-13.6,30.4-30.4c0-16.8-13.6-30.4-30.4-30.4H72z"/>
		</g>
		<g>
			<path class="st1" d="M163,147.8c-10.7,0-18.5-1.4-18.8-1.5l-2.9-0.5l-0.5-2.9c-0.1-0.5-2-11.3-1.3-25.1c1-18.6,6.6-33.4,16.1-43
				c13.5-13.5,34.2-16.3,49.2-16.3c10.7,0,18.5,1.4,18.8,1.5l2.9,0.5l0.5,2.9c0.1,0.5,2,11.3,1.3,25.1c-1,18.6-6.6,33.4-16.1,43
				C198.7,145,178,147.8,163,147.8z M148.8,138.2c3,0.4,8.1,0.9,14.2,0.9c13.4,0,31.7-2.4,43.1-13.8c16.5-16.5,14.1-47.5,12.9-57.3
				c-3-0.4-8.1-0.9-14.2-0.9c-13.4,0-31.7,2.4-43.1,13.8C145.2,97.4,147.6,128.4,148.8,138.2z"/>
			<path class="st1" d="M204.8,228.5C204.8,228.5,204.8,228.5,204.8,228.5c-15,0-35.8-2.8-49.3-16.3c-9.6-9.6-15.1-24.4-16.1-43
				c-0.7-13.7,1.2-24.6,1.3-25.1l0.5-2.9l2.9-0.5c0.3-0.1,8.1-1.5,18.8-1.5c15,0,35.8,2.8,49.2,16.3c9.6,9.6,15.1,24.4,16.1,43
				c0.7,13.7-1.2,24.6-1.3,25.1l-0.5,2.9l-2.9,0.5C223.2,227.1,215.5,228.5,204.8,228.5z M148.8,148.8c-1.2,9.8-3.6,40.8,12.9,57.3
				c11.4,11.4,29.7,13.8,43.1,13.8c0,0,0,0,0,0c6,0,11.1-0.5,14.2-0.9c1.2-9.8,3.6-40.8-12.9-57.3c-11.4-11.4-29.7-13.8-43.1-13.8
				C156.9,147.9,151.8,148.4,148.8,148.8z"/>
			<path class="st1" d="M82.2,228.5c-10.7,0-18.5-1.4-18.8-1.5l-2.9-0.5l-0.5-2.9c-0.1-0.5-2-11.3-1.3-25.1c1-18.6,6.6-33.4,16.1-43
				c13.5-13.5,34.2-16.3,49.2-16.3c10.7,0,18.5,1.4,18.8,1.5l2.9,0.5l0.5,2.9c0.1,0.5,2,11.3,1.3,25.1c-1,18.6-6.6,33.4-16.1,43
				C118,225.7,97.3,228.5,82.2,228.5z M68.1,219c3,0.4,8.1,0.9,14.2,0.9c13.4,0,31.7-2.4,43.1-13.8c16.5-16.5,14.1-47.5,12.9-57.3
				c-3-0.4-8.1-0.9-14.2-0.9c-13.4,0-31.7,2.4-43.1,13.8C64.4,178.2,66.8,209.2,68.1,219z"/>
			<path class="st1" d="M124.1,147.8C124.1,147.8,124.1,147.8,124.1,147.8c-15,0-35.8-2.8-49.3-16.3c-9.6-9.6-15.1-24.4-16.1-43
				c-0.7-13.7,1.2-24.6,1.3-25.1l0.5-2.9l2.9-0.5c0.3-0.1,8.1-1.5,18.8-1.5c15,0,35.8,2.8,49.2,16.3c9.6,9.6,15.1,24.4,16.1,43
				c0.7,13.7-1.2,24.6-1.3,25.1l-0.5,2.9l-2.9,0.5C142.5,146.4,134.7,147.8,124.1,147.8z M68.1,68.1c-1.2,9.8-3.6,40.8,12.9,57.3
				c11.4,11.4,29.7,13.8,43.1,13.8h0c6,0,11.1-0.5,14.2-0.9c1.2-9.8,3.6-40.8-12.9-57.3C114,69.6,95.6,67.2,82.2,67.2
				C76.2,67.2,71.1,67.7,68.1,68.1z"/>
		</g>
		<g>
			<path class="st2" d="M204.8,67.2c6,0,11.1,0.5,14.2,0.9c0.8,6.4,2.1,21.9-1.7,36.4c-0.7,0-1.5-0.1-2.2-0.1h-32.4V72
				c0-0.8,0-1.5-0.1-2.3C190.2,67.8,198.1,67.2,204.8,67.2z"/>
			<path class="st2" d="M161.7,206.1c-6.3-6.3-9.9-14.8-11.8-23.5h24v31.7C169.4,212.3,165.2,209.6,161.7,206.1z"/>
			<path class="st2" d="M125.3,80.9c6.3,6.3,9.9,14.8,11.8,23.5h-24V72.7C117.6,74.7,121.8,77.4,125.3,80.9z"/>
			<path class="st2" d="M149.9,104.4c1.9-8.6,5.4-17.1,11.8-23.5c3.5-3.5,7.7-6.2,12.3-8.2v31.7H149.9L149.9,104.4z"/>
			<path class="st2" d="M104.4,137.1c-8.6-1.9-17.1-5.4-23.5-11.8c-3.5-3.5-6.2-7.7-8.2-12.3h31.7V137.1z"/>
			<path class="st2" d="M104.4,173.9H72.7c2-4.5,4.7-8.7,8.2-12.3c6.3-6.4,14.9-9.9,23.5-11.8L104.4,173.9L104.4,173.9z"/>
			<path class="st2" d="M137.1,182.6c-1.9,8.6-5.5,17.1-11.8,23.5c-3.5,3.5-7.7,6.2-12.3,8.2v-31.7L137.1,182.6L137.1,182.6z"/>
			<path class="st2" d="M182.6,149.9c8.6,1.9,17.1,5.4,23.5,11.8c3.5,3.5,6.2,7.7,8.2,12.3h-31.7V149.9z"/>
			<path class="st2" d="M182.6,113.1h31.7c-2,4.5-4.7,8.7-8.2,12.3c-6.3,6.3-14.9,9.9-23.5,11.8V113.1z"/>
			<path class="st2" d="M68.1,68.1c3-0.4,8.1-0.9,14.2-0.9c6.7,0,14.6,0.6,22.2,2.6c0,0.7-0.1,1.5-0.1,2.3v32.4H72
				c-0.8,0-1.5,0-2.2,0.1C66,89.9,67.3,74.5,68.1,68.1z"/>
			<path class="st2" d="M82.2,219.9c-6,0-11.1-0.5-14.2-0.9c-0.8-6.4-2.1-21.9,1.7-36.4c0.8,0,1.5,0.1,2.3,0.1h32.4V215
				c0,0.8,0,1.5,0.1,2.3C96.8,219.3,88.9,219.9,82.2,219.9z"/>
			<path class="st2" d="M219,219c-3,0.4-8.1,0.9-14.2,0.9c0,0,0,0,0,0c-6.7,0-14.6-0.6-22.2-2.6c0-0.7,0.1-1.5,0.1-2.3v-32.4H215
				c0.8,0,1.5,0,2.2-0.1C221,197.1,219.8,212.6,219,219z"/>
		</g>
		<g>
			<g>
				<polygon class="st1" points="287,239.6 287,230.9 230.9,230.9 230.9,287 239.6,287 239.6,239.6 				"/>
				<polygon class="st0" points="287,260.1 287,251.5 251.5,251.5 251.5,287 260.1,287 260.1,260.1 				"/>
			</g>
			<g>
				<polygon class="st1" points="287,47.4 287,56.1 230.9,56.1 230.9,0 239.6,0 239.6,47.4 				"/>
				<polygon class="st0" points="287,26.9 287,35.6 251.5,35.6 251.5,0 260.1,0 260.1,26.9 				"/>
			</g>
		</g>
		<g>
			<g>
				<polygon class="st1" points="0,239.6 0,230.9 56.1,230.9 56.1,287 47.4,287 47.4,239.6 				"/>
				<polygon class="st0" points="0,260.1 0,251.5 35.6,251.5 35.6,287 26.9,287 26.9,260.1 				"/>
			</g>
			<g>
				<polygon class="st1" points="0,47.4 0,56.1 56.1,56.1 56.1,0 47.4,0 47.4,47.4 				"/>
				<polygon class="st0" points="0,26.9 0,35.6 35.6,35.6 35.6,0 26.9,0 26.9,26.9 				"/>
			</g>
		</g>
	</g>
</g>
</svg>
