<?xml version="1.0" encoding="utf-8"?>
<!-- Generator: Adobe Illustrator 15.0.1, SVG Export Plug-In . SVG Version: 6.00 Build 0)  -->
<!DOCTYPE svg PUBLIC "-//W3C//DTD SVG 1.1//EN" "http://www.w3.org/Graphics/SVG/1.1/DTD/svg11.dtd">
<svg version="1.1" id="Layer_1" xmlns="http://www.w3.org/2000/svg" xmlns:xlink="http://www.w3.org/1999/xlink" x="0px" y="0px"
	 width="287.014px" height="287.016px" viewBox="0 0 287.014 287.016" enable-background="new 0 0 287.014 287.016"
	 xml:space="preserve">
<g>
	<g>
		<g>
			<path fill="#012466" d="M143.508,254.085c-21.56,0-39.099-17.539-39.099-39.1V72.031c0-21.557,17.539-39.096,39.099-39.096
				c21.558,0,39.096,17.539,39.096,39.096v142.957C182.603,236.546,165.065,254.085,143.508,254.085z M143.508,41.615
				c-16.772,0-30.417,13.646-30.417,30.416v142.957c0,16.773,13.645,30.418,30.417,30.418c16.771,0,30.418-13.645,30.418-30.418
				V72.031C173.926,55.259,160.28,41.615,143.508,41.615z"/>
			<path fill="#012466" d="M214.986,182.607H72.029c-21.558,0-39.097-17.539-39.097-39.096c0-21.561,17.539-39.1,39.097-39.1
				h142.957c21.56,0,39.099,17.539,39.099,39.1C254.083,165.068,236.544,182.607,214.986,182.607z M72.029,113.093
				c-16.771,0-30.417,13.645-30.417,30.418c0,16.771,13.646,30.416,30.417,30.416h142.957c16.772,0,30.418-13.646,30.418-30.416
				c0-16.773-13.646-30.418-30.418-30.418H72.029z"/>
		</g>
		<g>
			<path fill="#F8D500" d="M162.964,147.8c-10.682,0-18.468-1.408-18.794-1.471l-2.942-0.541l-0.541-2.939
				c-0.084-0.457-2.047-11.338-1.303-25.055c1.008-18.566,6.592-33.434,16.146-42.988c13.485-13.484,34.227-16.314,49.248-16.314
				c10.682,0,18.47,1.408,18.794,1.471l2.943,0.541l0.541,2.939c0.083,0.457,2.046,11.338,1.302,25.055
				c-1.008,18.566-6.592,33.434-16.146,42.988C198.727,144.97,177.988,147.8,162.964,147.8z M148.782,138.241
				c3.045,0.387,8.139,0.881,14.183,0.881c13.384,0,31.728-2.391,43.109-13.771c16.453-16.453,14.109-47.5,12.888-57.299
				c-3.045-0.387-8.139-0.881-14.183-0.881c-13.384,0-31.728,2.391-43.108,13.771C145.217,97.396,147.559,128.441,148.782,138.241z"
				/>
			<path fill="#F8D500" d="M204.781,228.529c-0.001,0-0.001,0-0.002,0c-15.022,0-35.764-2.83-49.248-16.313
				c-9.557-9.559-15.141-24.423-16.146-42.988c-0.744-13.717,1.219-24.598,1.303-25.055l0.541-2.941l2.942-0.541
				c0.326-0.061,8.112-1.469,18.794-1.469c15.022,0,35.764,2.83,49.248,16.313c9.557,9.559,15.141,24.422,16.146,42.988
				c0.744,13.717-1.219,24.598-1.302,25.055l-0.541,2.941l-2.943,0.541C223.248,227.12,215.461,228.529,204.781,228.529z
				 M148.782,148.779c-1.223,9.797-3.565,40.846,12.889,57.299c11.383,11.385,29.727,13.773,43.108,13.773c0.001,0,0.002,0,0.002,0
				c6.043,0,11.136-0.496,14.181-0.881c1.223-9.797,3.566-40.846-12.888-57.299c-11.384-11.385-29.728-13.773-43.109-13.773
				C156.92,147.898,151.828,148.394,148.782,148.779z"/>
			<path fill="#F8D500" d="M82.235,228.529c-10.68,0-18.469-1.408-18.795-1.469l-2.94-0.541l-0.54-2.941
				c-0.084-0.457-2.049-11.338-1.305-25.055c1.008-18.566,6.594-33.432,16.148-42.988c13.484-13.482,34.224-16.313,49.248-16.313
				c10.68,0,18.468,1.408,18.794,1.469l2.942,0.541l0.539,2.941c0.084,0.457,2.048,11.338,1.304,25.055
				c-1.007,18.565-6.591,33.432-16.147,42.988C117.999,225.698,97.259,228.529,82.235,228.529z M68.05,218.97
				c3.045,0.385,8.139,0.881,14.186,0.881c13.384,0,31.729-2.391,43.111-13.773c16.492-16.49,14.123-47.506,12.89-57.299
				c-3.044-0.385-8.139-0.881-14.185-0.881c-13.385,0-31.729,2.391-43.111,13.773C64.447,178.165,66.817,209.179,68.05,218.97z"/>
			<path fill="#F8D500" d="M124.054,147.8c-0.002,0-0.002,0-0.003,0c-15.024,0-35.765-2.83-49.247-16.314
				c-9.559-9.557-15.143-24.422-16.148-42.988C57.911,74.781,59.876,63.9,59.96,63.443l0.54-2.939l2.94-0.541
				c0.326-0.063,8.115-1.471,18.795-1.471c15.023,0,35.766,2.83,49.248,16.314c9.559,9.557,15.143,24.422,16.147,42.988
				c0.744,13.717-1.22,24.598-1.304,25.055l-0.538,2.939l-2.942,0.541C142.519,146.392,134.731,147.8,124.054,147.8z M68.054,68.05
				c-1.223,9.797-3.567,40.844,12.887,57.299c11.383,11.383,29.729,13.771,43.111,13.771h0.002c6.043,0,11.133-0.494,14.179-0.881
				c1.225-9.797,3.567-40.846-12.886-57.299c-11.385-11.383-29.728-13.771-43.111-13.771C76.191,67.169,71.1,67.665,68.054,68.05z"
				/>
		</g>
		<g>
			<path fill="#0276A6" d="M204.78,67.169c6.044,0,11.138,0.494,14.183,0.881c0.8,6.402,2.075,21.883-1.729,36.434
				c-0.744-0.043-1.493-0.07-2.248-0.07h-32.383V72.031c0-0.758-0.026-1.51-0.069-2.258
				C190.197,67.765,198.105,67.169,204.78,67.169z"/>
			<path fill="#0276A6" d="M161.67,206.077c-6.342-6.34-9.89-14.848-11.785-23.471h24.041v31.668
				C169.406,212.277,165.203,209.611,161.67,206.077z"/>
			<path fill="#0276A6" d="M125.347,80.943c6.34,6.34,9.887,14.848,11.785,23.471h-24.041V72.745
				C117.608,74.743,121.813,77.409,125.347,80.943z"/>
			<path fill="#0276A6" d="M149.885,104.413c1.896-8.623,5.442-17.131,11.785-23.471c3.531-3.533,7.735-6.199,12.256-8.197v31.668
				H149.885L149.885,104.413z"/>
			<path fill="#0276A6" d="M104.41,137.146c-8.607-1.9-17.123-5.449-23.471-11.797c-3.531-3.531-6.194-7.736-8.188-12.256h31.659
				V137.146z"/>
			<path fill="#0276A6" d="M104.41,173.927H72.739c2-4.52,4.666-8.723,8.201-12.256c6.348-6.35,14.861-9.896,23.471-11.797V173.927z
				"/>
			<path fill="#0276A6" d="M137.148,182.607c-1.897,8.615-5.451,17.119-11.802,23.471c-3.533,3.533-7.738,6.199-12.256,8.197
				v-31.668H137.148z"/>
			<path fill="#0276A6" d="M182.603,149.874c8.61,1.9,17.123,5.449,23.472,11.799c3.531,3.529,6.194,7.734,8.19,12.256h-31.662
				V149.874z"/>
			<path fill="#0276A6" d="M182.603,113.093h31.662c-1.996,4.52-4.659,8.725-8.19,12.256c-6.349,6.348-14.859,9.896-23.472,11.797
				V113.093z"/>
			<path fill="#0276A6" d="M68.054,68.05c3.047-0.387,8.138-0.881,14.182-0.881c6.675,0,14.583,0.596,22.246,2.604
				c-0.043,0.748-0.068,1.5-0.068,2.258v32.383H72.03c-0.755,0-1.503,0.027-2.248,0.07C65.977,89.933,67.255,74.452,68.054,68.05z"
				/>
			<path fill="#0276A6" d="M82.235,219.851c-6.047,0-11.141-0.496-14.186-0.881c-0.809-6.402-2.1-21.877,1.715-36.436
				c0.75,0.043,1.504,0.07,2.265,0.07h32.382v32.382c0,0.76,0.027,1.513,0.07,2.26C96.818,219.255,88.909,219.851,82.235,219.851z"
				/>
			<path fill="#0276A6" d="M218.961,218.97c-3.045,0.385-8.138,0.881-14.181,0.881c0,0-0.001,0-0.002,0
				c-6.675,0-14.583-0.596-22.246-2.604c0.044-0.747,0.069-1.5,0.069-2.26v-32.38h32.383c0.755,0,1.504-0.027,2.248-0.07
				C221.037,197.087,219.761,212.568,218.961,218.97z"/>
		</g>
		<g>
			<g>
				<polygon fill="#F8D500" points="287.014,239.579 287.014,230.9 230.898,230.9 230.898,287.017 239.576,287.017 239.576,239.579 
									"/>
				<polygon fill="#012466" points="287.014,260.136 287.014,251.456 251.453,251.456 251.453,287.017 260.133,287.017 
					260.133,260.136 				"/>
			</g>
			<g>
				<polygon fill="#F8D500" points="287.014,47.441 287.014,56.118 230.898,56.118 230.898,0.001 239.576,0.001 239.576,47.441 				
					"/>
				<polygon fill="#012466" points="287.014,26.884 287.014,35.562 251.453,35.562 251.453,0.001 260.133,0.001 260.133,26.884 				
					"/>
			</g>
		</g>
		<g>
			<g>
				<polygon fill="#F8D500" points="0,239.579 0,230.9 56.115,230.9 56.115,287.017 47.438,287.017 47.438,239.579 				"/>
				<polygon fill="#012466" points="0,260.136 0,251.456 35.56,251.456 35.56,287.017 26.882,287.017 26.882,260.136 				"/>
			</g>
			<g>
				<polygon fill="#F8D500" points="0,47.441 0,56.118 56.115,56.118 56.115,0.001 47.438,0.001 47.438,47.441 				"/>
				<polygon fill="#012466" points="0,26.884 0,35.562 35.56,35.562 35.56,0.001 26.882,0.001 26.882,26.884 				"/>
			</g>
		</g>
	</g>
</g>
</svg>
